<mxfile host="app.diagrams.net" modified="2022-07-01T00:44:24.143Z" agent="5.0 (Windows NT 10.0; Win64; x64) AppleWebKit/537.36 (KHTML, like Gecko) Chrome/103.0.5060.53 Safari/537.36 Edg/103.0.1264.37" etag="qgJcDFJ8Rv6tZTbYnkcF" version="20.0.3" type="github">
  <diagram id="C5RBs43oDa-KdzZeNtuy" name="Page-1">
    <mxGraphModel dx="1038" dy="5260" grid="1" gridSize="10" guides="1" tooltips="1" connect="1" arrows="1" fold="1" page="1" pageScale="1" pageWidth="3300" pageHeight="4681" math="0" shadow="0">
      <root>
        <mxCell id="WIyWlLk6GJQsqaUBKTNV-0" />
        <mxCell id="WIyWlLk6GJQsqaUBKTNV-1" parent="WIyWlLk6GJQsqaUBKTNV-0" />
        <mxCell id="mbmvQlX0xwVgaDl7BcdG-14" value="推送" style="swimlane;html=1;childLayout=stackLayout;startSize=20;rounded=0;shadow=0;labelBackgroundColor=none;strokeWidth=1;fontFamily=Verdana;fontSize=8;align=center;" parent="WIyWlLk6GJQsqaUBKTNV-1" vertex="1">
          <mxGeometry x="10" y="-70" width="1010" height="750" as="geometry" />
        </mxCell>
        <mxCell id="mbmvQlX0xwVgaDl7BcdG-85" style="rounded=0;orthogonalLoop=1;jettySize=auto;html=1;dashed=1;exitX=1;exitY=0.25;exitDx=0;exitDy=0;" parent="mbmvQlX0xwVgaDl7BcdG-14" source="mbmvQlX0xwVgaDl7BcdG-70" target="mbmvQlX0xwVgaDl7BcdG-75" edge="1">
          <mxGeometry relative="1" as="geometry" />
        </mxCell>
        <mxCell id="mbmvQlX0xwVgaDl7BcdG-15" value="批量提交接口" style="swimlane;html=1;startSize=20;" parent="mbmvQlX0xwVgaDl7BcdG-14" vertex="1">
          <mxGeometry y="20" width="310" height="730" as="geometry" />
        </mxCell>
        <mxCell id="mbmvQlX0xwVgaDl7BcdG-16" value="三方发送下单" style="rounded=1;whiteSpace=wrap;html=1;shadow=0;labelBackgroundColor=none;strokeWidth=1;fontFamily=Verdana;fontSize=8;align=center;arcSize=50;" parent="mbmvQlX0xwVgaDl7BcdG-15" vertex="1">
          <mxGeometry x="70" y="65" width="100" height="60" as="geometry" />
        </mxCell>
        <mxCell id="mbmvQlX0xwVgaDl7BcdG-19" style="edgeStyle=orthogonalEdgeStyle;rounded=1;html=1;labelBackgroundColor=none;startArrow=none;startFill=0;startSize=5;endArrow=classicThin;endFill=1;endSize=5;jettySize=auto;orthogonalLoop=1;strokeWidth=1;fontFamily=Verdana;fontSize=8" parent="mbmvQlX0xwVgaDl7BcdG-15" source="mbmvQlX0xwVgaDl7BcdG-16" target="mbmvQlX0xwVgaDl7BcdG-66" edge="1">
          <mxGeometry relative="1" as="geometry">
            <mxPoint x="120" y="160" as="targetPoint" />
          </mxGeometry>
        </mxCell>
        <mxCell id="mbmvQlX0xwVgaDl7BcdG-66" value="按业务模板创建统计" style="rounded=0;whiteSpace=wrap;html=1;" parent="mbmvQlX0xwVgaDl7BcdG-15" vertex="1">
          <mxGeometry x="60" y="170" width="120" height="60" as="geometry" />
        </mxCell>
        <mxCell id="mbmvQlX0xwVgaDl7BcdG-70" value="业务处理队列" style="rounded=0;whiteSpace=wrap;html=1;fillColor=#dae8fc;strokeColor=#6c8ebf;" parent="mbmvQlX0xwVgaDl7BcdG-15" vertex="1">
          <mxGeometry x="60" y="370" width="120" height="60" as="geometry" />
        </mxCell>
        <mxCell id="mbmvQlX0xwVgaDl7BcdG-74" value="" style="edgeStyle=orthogonalEdgeStyle;rounded=0;orthogonalLoop=1;jettySize=auto;html=1;" parent="mbmvQlX0xwVgaDl7BcdG-15" source="mbmvQlX0xwVgaDl7BcdG-70" target="mbmvQlX0xwVgaDl7BcdG-83" edge="1">
          <mxGeometry relative="1" as="geometry">
            <mxPoint x="120" y="520" as="targetPoint" />
          </mxGeometry>
        </mxCell>
        <mxCell id="mbmvQlX0xwVgaDl7BcdG-83" value="三方发送下单" style="rounded=1;whiteSpace=wrap;html=1;shadow=0;labelBackgroundColor=none;strokeWidth=1;fontFamily=Verdana;fontSize=8;align=center;arcSize=50;" parent="mbmvQlX0xwVgaDl7BcdG-15" vertex="1">
          <mxGeometry x="70" y="570" width="100" height="60" as="geometry" />
        </mxCell>
        <mxCell id="E5Av2SM936Q-IOC52uHt-11" style="edgeStyle=orthogonalEdgeStyle;rounded=0;orthogonalLoop=1;jettySize=auto;html=1;strokeColor=#1A1A1A;" edge="1" parent="mbmvQlX0xwVgaDl7BcdG-15" source="mbmvQlX0xwVgaDl7BcdG-66" target="E5Av2SM936Q-IOC52uHt-13">
          <mxGeometry relative="1" as="geometry">
            <mxPoint x="120" y="270" as="targetPoint" />
          </mxGeometry>
        </mxCell>
        <mxCell id="E5Av2SM936Q-IOC52uHt-14" style="edgeStyle=orthogonalEdgeStyle;rounded=0;orthogonalLoop=1;jettySize=auto;html=1;strokeColor=#1A1A1A;" edge="1" parent="mbmvQlX0xwVgaDl7BcdG-15" source="E5Av2SM936Q-IOC52uHt-13" target="mbmvQlX0xwVgaDl7BcdG-70">
          <mxGeometry relative="1" as="geometry" />
        </mxCell>
        <mxCell id="E5Av2SM936Q-IOC52uHt-13" value="渠道允许发送时间段填充到消息体" style="rounded=0;whiteSpace=wrap;html=1;" vertex="1" parent="mbmvQlX0xwVgaDl7BcdG-15">
          <mxGeometry x="60" y="270" width="120" height="60" as="geometry" />
        </mxCell>
        <mxCell id="mbmvQlX0xwVgaDl7BcdG-36" value="业务处理队列(实际参数格式封装)" style="swimlane;html=1;startSize=20;fillColor=#dae8fc;strokeColor=#6c8ebf;" parent="mbmvQlX0xwVgaDl7BcdG-14" vertex="1">
          <mxGeometry x="310" y="20" width="260" height="730" as="geometry" />
        </mxCell>
        <mxCell id="E5Av2SM936Q-IOC52uHt-8" style="edgeStyle=orthogonalEdgeStyle;rounded=0;orthogonalLoop=1;jettySize=auto;html=1;" edge="1" parent="mbmvQlX0xwVgaDl7BcdG-36" source="mbmvQlX0xwVgaDl7BcdG-75" target="E5Av2SM936Q-IOC52uHt-9">
          <mxGeometry relative="1" as="geometry">
            <mxPoint x="120" y="190" as="targetPoint" />
          </mxGeometry>
        </mxCell>
        <mxCell id="mbmvQlX0xwVgaDl7BcdG-75" value="收到队列消息" style="rounded=1;whiteSpace=wrap;html=1;shadow=0;labelBackgroundColor=none;strokeWidth=1;fontFamily=Verdana;fontSize=8;align=center;arcSize=50;" parent="mbmvQlX0xwVgaDl7BcdG-36" vertex="1">
          <mxGeometry x="70" y="70" width="100" height="60" as="geometry" />
        </mxCell>
        <mxCell id="mbmvQlX0xwVgaDl7BcdG-81" value="提交到待发送队列" style="rounded=0;whiteSpace=wrap;html=1;fillColor=#f0a30a;strokeColor=#BD7000;fontColor=#000000;" parent="mbmvQlX0xwVgaDl7BcdG-36" vertex="1">
          <mxGeometry x="60" y="370" width="120" height="60" as="geometry" />
        </mxCell>
        <mxCell id="mbmvQlX0xwVgaDl7BcdG-86" value="结束" style="rounded=1;whiteSpace=wrap;html=1;shadow=0;labelBackgroundColor=none;strokeWidth=1;fontFamily=Verdana;fontSize=8;align=center;arcSize=50;" parent="mbmvQlX0xwVgaDl7BcdG-36" vertex="1">
          <mxGeometry x="70" y="570" width="100" height="60" as="geometry" />
        </mxCell>
        <mxCell id="mbmvQlX0xwVgaDl7BcdG-82" style="edgeStyle=orthogonalEdgeStyle;rounded=0;orthogonalLoop=1;jettySize=auto;html=1;" parent="mbmvQlX0xwVgaDl7BcdG-36" source="mbmvQlX0xwVgaDl7BcdG-81" target="mbmvQlX0xwVgaDl7BcdG-86" edge="1">
          <mxGeometry relative="1" as="geometry">
            <mxPoint x="70" y="420" as="targetPoint" />
          </mxGeometry>
        </mxCell>
        <mxCell id="E5Av2SM936Q-IOC52uHt-10" style="edgeStyle=orthogonalEdgeStyle;rounded=0;orthogonalLoop=1;jettySize=auto;html=1;" edge="1" parent="mbmvQlX0xwVgaDl7BcdG-36" source="E5Av2SM936Q-IOC52uHt-9" target="mbmvQlX0xwVgaDl7BcdG-81">
          <mxGeometry relative="1" as="geometry" />
        </mxCell>
        <mxCell id="E5Av2SM936Q-IOC52uHt-9" value="存入消息记录:待发送" style="shape=cylinder3;whiteSpace=wrap;html=1;boundedLbl=1;backgroundOutline=1;size=15;" vertex="1" parent="mbmvQlX0xwVgaDl7BcdG-36">
          <mxGeometry x="90" y="190" width="60" height="80" as="geometry" />
        </mxCell>
        <mxCell id="mbmvQlX0xwVgaDl7BcdG-110" style="rounded=0;orthogonalLoop=1;jettySize=auto;html=1;strokeColor=#000000;dashed=1;" parent="mbmvQlX0xwVgaDl7BcdG-14" source="mbmvQlX0xwVgaDl7BcdG-81" target="mbmvQlX0xwVgaDl7BcdG-100" edge="1">
          <mxGeometry relative="1" as="geometry" />
        </mxCell>
        <mxCell id="mbmvQlX0xwVgaDl7BcdG-99" value="待发送队列(调用对应渠道发送)" style="swimlane;html=1;startSize=20;fillColor=#1A1A1A;strokeColor=#d6b656;" parent="mbmvQlX0xwVgaDl7BcdG-14" vertex="1">
          <mxGeometry x="570" y="20" width="260" height="730" as="geometry" />
        </mxCell>
        <mxCell id="mbmvQlX0xwVgaDl7BcdG-100" value="收到队列消息" style="rounded=1;whiteSpace=wrap;html=1;shadow=0;labelBackgroundColor=none;strokeWidth=1;fontFamily=Verdana;fontSize=8;align=center;arcSize=50;fillColor=#f0a30a;fontColor=#000000;strokeColor=#BD7000;" parent="mbmvQlX0xwVgaDl7BcdG-99" vertex="1">
          <mxGeometry x="70" y="70" width="100" height="60" as="geometry" />
        </mxCell>
        <mxCell id="mbmvQlX0xwVgaDl7BcdG-101" style="edgeStyle=orthogonalEdgeStyle;rounded=0;orthogonalLoop=1;jettySize=auto;html=1;strokeColor=#1A1A1A;" parent="mbmvQlX0xwVgaDl7BcdG-99" source="mbmvQlX0xwVgaDl7BcdG-100" target="mbmvQlX0xwVgaDl7BcdG-111" edge="1">
          <mxGeometry relative="1" as="geometry">
            <mxPoint x="120" y="180" as="targetPoint" />
          </mxGeometry>
        </mxCell>
        <mxCell id="mbmvQlX0xwVgaDl7BcdG-111" value="提交到线程池" style="rounded=0;whiteSpace=wrap;html=1;" parent="mbmvQlX0xwVgaDl7BcdG-99" vertex="1">
          <mxGeometry x="60" y="280" width="120" height="60" as="geometry" />
        </mxCell>
        <mxCell id="mbmvQlX0xwVgaDl7BcdG-114" value="结束" style="rounded=1;whiteSpace=wrap;html=1;shadow=0;labelBackgroundColor=none;strokeWidth=1;fontFamily=Verdana;fontSize=8;align=center;arcSize=50;" parent="mbmvQlX0xwVgaDl7BcdG-99" vertex="1">
          <mxGeometry x="70" y="570" width="100" height="60" as="geometry" />
        </mxCell>
        <mxCell id="mbmvQlX0xwVgaDl7BcdG-113" style="edgeStyle=none;rounded=0;orthogonalLoop=1;jettySize=auto;html=1;strokeColor=#1A1A1A;" parent="mbmvQlX0xwVgaDl7BcdG-99" source="mbmvQlX0xwVgaDl7BcdG-111" target="mbmvQlX0xwVgaDl7BcdG-114" edge="1">
          <mxGeometry relative="1" as="geometry">
            <mxPoint x="120" y="430" as="targetPoint" />
          </mxGeometry>
        </mxCell>
        <mxCell id="DcfGnrZS7QAa76NQlmp4-4" style="rounded=0;orthogonalLoop=1;jettySize=auto;html=1;strokeColor=#1A1A1A;dashed=1;" parent="WIyWlLk6GJQsqaUBKTNV-1" source="mbmvQlX0xwVgaDl7BcdG-111" target="DcfGnrZS7QAa76NQlmp4-5" edge="1">
          <mxGeometry relative="1" as="geometry">
            <mxPoint x="1252.8208996706503" y="164.7128620772785" as="targetPoint" />
          </mxGeometry>
        </mxCell>
        <mxCell id="DcfGnrZS7QAa76NQlmp4-6" style="edgeStyle=none;rounded=0;orthogonalLoop=1;jettySize=auto;html=1;strokeColor=#FF0000;" parent="WIyWlLk6GJQsqaUBKTNV-1" source="DcfGnrZS7QAa76NQlmp4-5" target="DcfGnrZS7QAa76NQlmp4-9" edge="1">
          <mxGeometry relative="1" as="geometry">
            <mxPoint x="1220" y="250" as="targetPoint" />
          </mxGeometry>
        </mxCell>
        <mxCell id="DcfGnrZS7QAa76NQlmp4-5" value="开始执行" style="rounded=1;whiteSpace=wrap;html=1;arcSize=50;" parent="WIyWlLk6GJQsqaUBKTNV-1" vertex="1">
          <mxGeometry x="1160" y="-10" width="120" height="60" as="geometry" />
        </mxCell>
        <mxCell id="DcfGnrZS7QAa76NQlmp4-10" value="是" style="edgeStyle=none;rounded=0;orthogonalLoop=1;jettySize=auto;html=1;strokeColor=#FF0000;" parent="WIyWlLk6GJQsqaUBKTNV-1" source="DcfGnrZS7QAa76NQlmp4-9" target="DcfGnrZS7QAa76NQlmp4-11" edge="1">
          <mxGeometry relative="1" as="geometry">
            <mxPoint x="1220" y="410" as="targetPoint" />
          </mxGeometry>
        </mxCell>
        <mxCell id="DcfGnrZS7QAa76NQlmp4-19" value="否" style="edgeStyle=none;rounded=0;orthogonalLoop=1;jettySize=auto;html=1;strokeColor=#FF0000;" parent="WIyWlLk6GJQsqaUBKTNV-1" source="DcfGnrZS7QAa76NQlmp4-9" target="DcfGnrZS7QAa76NQlmp4-20" edge="1">
          <mxGeometry relative="1" as="geometry">
            <mxPoint x="1400" y="280" as="targetPoint" />
          </mxGeometry>
        </mxCell>
        <mxCell id="DcfGnrZS7QAa76NQlmp4-9" value="是否在允许发送时间段;" style="strokeWidth=2;html=1;shape=mxgraph.flowchart.decision;whiteSpace=wrap;" parent="WIyWlLk6GJQsqaUBKTNV-1" vertex="1">
          <mxGeometry x="1147.5" y="170" width="145" height="100" as="geometry" />
        </mxCell>
        <mxCell id="DcfGnrZS7QAa76NQlmp4-14" value="" style="edgeStyle=none;rounded=0;orthogonalLoop=1;jettySize=auto;html=1;strokeColor=#FF0000;" parent="WIyWlLk6GJQsqaUBKTNV-1" source="DcfGnrZS7QAa76NQlmp4-11" target="DcfGnrZS7QAa76NQlmp4-23" edge="1">
          <mxGeometry relative="1" as="geometry" />
        </mxCell>
        <mxCell id="DcfGnrZS7QAa76NQlmp4-11" value="调用对应渠道批量提交" style="rounded=0;whiteSpace=wrap;html=1;" parent="WIyWlLk6GJQsqaUBKTNV-1" vertex="1">
          <mxGeometry x="1160" y="340" width="120" height="60" as="geometry" />
        </mxCell>
        <mxCell id="DcfGnrZS7QAa76NQlmp4-18" value="结束" style="rounded=1;whiteSpace=wrap;html=1;arcSize=42;" parent="WIyWlLk6GJQsqaUBKTNV-1" vertex="1">
          <mxGeometry x="1160" y="640" width="120" height="60" as="geometry" />
        </mxCell>
        <mxCell id="DcfGnrZS7QAa76NQlmp4-21" style="edgeStyle=orthogonalEdgeStyle;rounded=0;orthogonalLoop=1;jettySize=auto;html=1;strokeColor=#000000;dashed=1;" parent="WIyWlLk6GJQsqaUBKTNV-1" source="DcfGnrZS7QAa76NQlmp4-20" target="mbmvQlX0xwVgaDl7BcdG-100" edge="1">
          <mxGeometry relative="1" as="geometry">
            <Array as="points">
              <mxPoint x="1480" y="100" />
              <mxPoint x="880" y="100" />
            </Array>
          </mxGeometry>
        </mxCell>
        <mxCell id="DcfGnrZS7QAa76NQlmp4-26" style="edgeStyle=orthogonalEdgeStyle;rounded=0;orthogonalLoop=1;jettySize=auto;html=1;strokeColor=#FF0000;dashed=1;" parent="WIyWlLk6GJQsqaUBKTNV-1" source="DcfGnrZS7QAa76NQlmp4-20" target="DcfGnrZS7QAa76NQlmp4-22" edge="1">
          <mxGeometry relative="1" as="geometry" />
        </mxCell>
        <mxCell id="DcfGnrZS7QAa76NQlmp4-20" value="提交到待发送队列,延迟级别为最接近允许推送时间的,若没有,则设置为最大" style="rounded=0;whiteSpace=wrap;html=1;fillColor=#fff2cc;strokeColor=#d6b656;" parent="WIyWlLk6GJQsqaUBKTNV-1" vertex="1">
          <mxGeometry x="1420" y="190" width="120" height="60" as="geometry" />
        </mxCell>
        <mxCell id="DcfGnrZS7QAa76NQlmp4-25" style="edgeStyle=orthogonalEdgeStyle;rounded=0;orthogonalLoop=1;jettySize=auto;html=1;strokeColor=#FF0000;entryX=1;entryY=0.5;entryDx=0;entryDy=0;dashed=1;" parent="WIyWlLk6GJQsqaUBKTNV-1" source="DcfGnrZS7QAa76NQlmp4-22" target="DcfGnrZS7QAa76NQlmp4-23" edge="1">
          <mxGeometry relative="1" as="geometry">
            <mxPoint x="1340" y="510" as="targetPoint" />
          </mxGeometry>
        </mxCell>
        <mxCell id="DcfGnrZS7QAa76NQlmp4-22" value="是否需要记录限制发送时间?" style="text;html=1;strokeColor=none;fillColor=none;align=center;verticalAlign=middle;whiteSpace=wrap;rounded=0;" parent="WIyWlLk6GJQsqaUBKTNV-1" vertex="1">
          <mxGeometry x="1460" y="410" width="60" height="30" as="geometry" />
        </mxCell>
        <mxCell id="DcfGnrZS7QAa76NQlmp4-24" style="edgeStyle=orthogonalEdgeStyle;rounded=0;orthogonalLoop=1;jettySize=auto;html=1;strokeColor=#FF0000;" parent="WIyWlLk6GJQsqaUBKTNV-1" source="DcfGnrZS7QAa76NQlmp4-23" target="DcfGnrZS7QAa76NQlmp4-18" edge="1">
          <mxGeometry relative="1" as="geometry">
            <mxPoint x="1220" y="670" as="targetPoint" />
          </mxGeometry>
        </mxCell>
        <mxCell id="DcfGnrZS7QAa76NQlmp4-23" value="存入明细表" style="rounded=0;whiteSpace=wrap;html=1;" parent="WIyWlLk6GJQsqaUBKTNV-1" vertex="1">
          <mxGeometry x="1160" y="460" width="120" height="60" as="geometry" />
        </mxCell>
        <mxCell id="E5Av2SM936Q-IOC52uHt-4" value="push_business_template_statistics" style="swimlane;childLayout=stackLayout;horizontal=1;startSize=30;horizontalStack=0;rounded=1;fontSize=14;fontStyle=0;strokeWidth=2;resizeParent=0;resizeLast=1;shadow=0;dashed=0;align=center;" vertex="1" parent="WIyWlLk6GJQsqaUBKTNV-1">
          <mxGeometry x="120" y="1620" width="350" height="240" as="geometry" />
        </mxCell>
        <mxCell id="E5Av2SM936Q-IOC52uHt-5" value="+ id    Integer&#xa;+ name  String&#xa;+Attribute3" style="align=left;strokeColor=none;fillColor=none;spacingLeft=4;fontSize=12;verticalAlign=top;resizable=0;rotatable=0;part=1;" vertex="1" parent="E5Av2SM936Q-IOC52uHt-4">
          <mxGeometry y="30" width="350" height="210" as="geometry" />
        </mxCell>
      </root>
    </mxGraphModel>
  </diagram>
</mxfile>
